PathFileType	4	(X/Y/Z)	D:\TRACE\v60_Jaco2_6-2-23\JustArmDRS_Motion2_4-platform.trc
DataRate	CameraRate	NumFrames	NumMarkers	Units	OrigDataRate	OrigDataStartFrame	OrigNumFrames
100.00	100.00	      41	5	mm	100.00	3452	      6902
Frame#	Time	Left_Front			Right_Front			Left_Aft			Right_Aft			Post			
		X1	Y1	Z1	X2	Y2	Z2	X3	Y3	Z3	X4	Y4	Z4	X5	Y5	Z5	

3452	34.510	-827.92090	-50.77777	-650.32935	742.21558	-48.47368	-655.82867	-735.92590	47.58775	480.66260	706.58191	48.73178	490.35745	-40.74821	1213.85718	-1112.02148	
3453	34.520	-826.90894	-50.09606	-650.23938	743.16364	-48.61174	-655.47046	-735.19196	47.25509	480.83829	707.31451	48.44031	490.44223	-40.23866	1214.19629	-1112.47290	
3454	34.530	-826.24854	-49.70416	-650.07336	744.13470	-47.48679	-655.23718	-734.49664	47.05767	480.96402	708.10968	48.08028	490.47995	-39.43512	1214.98364	-1112.77673	
3455	34.540	-825.02625	-49.04881	-649.94104	745.17603	-46.91814	-655.40210	-733.34576	46.65968	481.11380	709.06030	47.73045	490.61783	-38.01188	1215.60864	-1113.48291	
3456	34.550	-824.14990	-48.43499	-649.95984	746.54785	-46.59489	-654.91858	-732.42950	46.27842	481.38672	710.01251	47.36250	490.68918	-37.15914	1216.81299	-1113.42676	
3457	34.560	-823.24274	-47.88308	-649.98199	747.38403	-45.67350	-654.98114	-731.40063	45.77955	481.49564	710.94305	46.94920	490.80048	-36.27207	1217.57861	-1113.28406	
3458	34.570	-822.30121	-47.38807	-649.95117	748.57526	-44.76543	-654.56726	-730.21332	45.47739	481.56836	712.10693	46.57687	491.02045	-35.33381	1218.47937	-1112.93896	
3459	34.580	-821.38770	-46.87223	-649.60046	749.10980	-44.44715	-655.02686	-729.54193	45.01224	481.82953	712.88141	46.07844	491.19363	-34.19770	1219.48877	-1113.02319	
3460	34.590	-820.18835	-46.20485	-649.65997	750.79889	-43.59235	-654.32196	-728.53687	44.43094	482.05945	713.87305	45.73211	491.35745	-33.26543	1220.54456	-1112.57129	
3461	34.600	-819.26862	-45.50412	-649.59247	750.63745	-43.86339	-654.82263	-727.33551	44.06468	482.23062	714.98645	45.22595	491.44516	-32.05074	1221.59277	-1112.00049	
3462	34.610	-818.26898	-44.52230	-649.51349	751.65021	-43.13249	-654.44556	-726.60236	43.64474	482.44440	715.65582	44.88034	491.73633	-31.01681	1222.73633	-1111.24475	
3463	34.620	-817.25470	-43.77079	-649.38770	752.80969	-42.08984	-654.62042	-725.36658	43.04598	482.68854	717.18182	44.21062	491.81186	-29.99201	1224.15649	-1110.21143	
3464	34.630	-816.06818	-43.04955	-649.19373	753.64410	-41.34505	-654.57831	-724.30341	42.63916	482.95801	717.97534	43.65948	491.98718	-29.05758	1225.21838	-1109.52637	
3465	34.640	-815.08014	-42.12043	-649.18842	754.73157	-40.50390	-654.23578	-723.47388	42.04702	483.16556	718.94202	43.00871	492.12344	-27.86049	1226.64355	-1108.54688	
3466	34.650	-814.19666	-41.47525	-648.97882	755.85052	-39.79332	-654.30804	-722.24341	41.24247	483.37054	719.91602	42.32431	492.42853	-26.42281	1228.08618	-1107.63989	
3467	34.660	-813.00690	-40.20451	-648.83929	756.69373	-38.58646	-654.19928	-721.40509	40.77186	483.62692	721.16290	41.76866	492.74072	-25.38273	1229.46289	-1106.46143	
3468	34.670	-811.73444	-39.33093	-648.70020	757.82690	-37.71648	-653.83319	-720.31104	40.15493	483.82333	722.46295	41.25123	493.08017	-25.08561	1231.28369	-1105.26257	
3469	34.680	-810.73102	-38.53607	-648.42090	759.19305	-36.81933	-653.67627	-719.02155	39.40591	484.09866	723.09827	40.13174	493.61081	-23.71219	1232.68188	-1103.97900	
3470	34.690	-809.77527	-37.27774	-648.42468	760.12622	-35.75061	-653.75665	-718.18726	39.01229	484.35092	724.36481	39.47888	494.08823	-22.05331	1234.32275	-1102.61560	
3471	34.700	-808.94250	-36.22409	-648.30176	761.12073	-34.68806	-653.27258	-716.88635	38.06287	484.80615	725.24384	38.66430	494.25372	-21.10350	1235.90674	-1100.81519	
3472	34.710	-807.59015	-35.33546	-648.01093	762.57727	-33.55268	-652.95782	-715.77032	37.30107	484.97070	726.18915	38.00662	494.61380	-20.24351	1237.92542	-1099.31482	
3473	34.720	-806.38232	-34.25636	-647.74573	763.36731	-32.57891	-653.24200	-714.74701	36.64137	485.35944	727.47638	37.23209	494.81189	-19.11529	1239.69189	-1097.26392	
3474	34.730	-805.44550	-32.98814	-647.68060	765.03345	-31.20451	-652.37201	-713.47894	35.80155	485.66693	728.40576	36.50574	495.20316	-17.50440	1241.55896	-1095.44409	
3475	34.740	-804.45117	-31.75151	-647.38745	765.56470	-30.17177	-652.68146	-712.50360	35.20010	485.86493	730.00934	35.76146	495.38614	-16.71204	1243.57239	-1093.28943	
3476	34.750	-803.14661	-30.71981	-647.22601	766.74390	-28.97665	-652.48602	-711.26453	34.24260	486.17789	730.82056	34.95282	495.79663	-15.26278	1245.15857	-1091.30103	
3477	34.760	-801.82751	-29.51338	-647.06000	767.92731	-27.90254	-652.26801	-710.40082	33.63409	486.57263	732.12317	34.11307	496.12665	-14.61655	1247.17285	-1088.52893	
3478	34.770	-800.94653	-28.39829	-646.90350	769.01990	-26.59308	-651.92657	-709.24548	32.57163	486.76871	732.83575	33.26682	496.37460	-13.29029	1249.20618	-1085.94214	
3479	34.780	-799.92194	-27.22519	-646.63733	770.17181	-25.27772	-651.80957	-708.05469	31.94303	487.16345	734.46332	32.39420	496.66882	-11.75201	1251.12561	-1083.17188	
3480	34.790	-798.57007	-25.70839	-646.36456	771.40930	-24.27493	-651.68213	-706.91882	30.90725	487.41730	735.46466	31.54076	496.93564	-10.88732	1253.30273	-1080.32214	
3481	34.800	-797.32208	-24.21759	-646.17755	772.48499	-22.75637	-651.16779	-705.74585	30.21667	487.85416	736.61871	30.57958	497.28140	-9.78631	1255.64783	-1077.23926	
3482	34.810	-796.40424	-23.25110	-645.82104	773.64886	-21.38215	-650.86694	-704.60358	29.25169	488.27402	737.66229	29.58105	497.67310	-8.58203	1257.62537	-1073.99890	
3483	34.820	-795.33228	-21.97854	-645.63800	774.86169	-20.18603	-650.89618	-703.52179	28.40437	488.62448	738.85144	28.68290	498.06213	-7.48986	1259.95862	-1070.86462	
3484	34.830	-793.89850	-20.37106	-645.45844	775.82434	-18.86685	-650.43164	-702.14410	27.33812	488.91565	739.94196	27.69924	498.37607	-6.13168	1262.17651	-1067.32910	
3485	34.840	-792.76929	-19.20116	-645.09064	776.91150	-17.29238	-650.20972	-701.24530	26.69900	489.32208	740.75311	26.83360	498.81534	-5.20441	1264.55396	-1063.79150	
3486	34.850	-791.56250	-18.02865	-644.73987	778.30884	-16.18011	-650.06128	-699.92303	25.52286	489.78104	742.42584	25.79015	499.05048	-4.28874	1266.90344	-1060.15552	
3487	34.860	-790.63715	-16.70009	-644.92914	779.07458	-14.54390	-649.87170	-698.87372	24.80859	489.91125	743.31268	24.62218	499.37967	-2.83614	1269.01025	-1056.66931	
3488	34.870	-789.19995	-15.54274	-644.26898	780.38348	-13.21907	-649.37622	-697.80322	23.58847	490.39954	744.63440	23.69725	499.80569	-2.24037	1271.53357	-1052.67590	
3489	34.880	-788.49542	-13.23389	-644.01111	781.48969	-11.91251	-649.18506	-696.69586	22.82074	490.62112	745.38208	22.51832	500.16876	-1.01780	1273.74536	-1048.80603	
3490	34.890	-787.34418	-11.76037	-643.72327	782.43134	-10.36596	-649.20544	-695.42230	21.62697	491.20853	746.78534	21.63196	500.68579	0.23227	1276.25610	-1044.73633	
3491	34.900	-786.38513	-10.26414	-643.29132	783.90521	-8.87007	-648.30383	-694.27869	20.75039	491.40689	747.73590	20.67797	500.97137	1.34993	1278.61658	-1040.76855	
3492	34.910	-785.13892	-8.82405	-643.20776	784.80396	-7.53100	-648.31335	-693.18890	19.73664	491.90460	748.96179	19.70738	501.28894	2.54265	1281.02405	-1036.25244	
